<svg xmlns="http://www.w3.org/2000/svg" viewBox="0 0 100 100">
  <defs>
    <linearGradient id="g1" x1="30.33" y1="8.56" x2="14.9" y2="44.7">
      <stop stop-color="#3F8B3D"/>
      <stop offset=".64" stop-color="#3F873F"/>
      <stop offset=".93" stop-color="#3DA92E"/>
      <stop offset="1" stop-color="#3DAE2B"/>
    </linearGradient>
  </defs>
  <path fill="url(#g1)" d="M50 6.29a5 5 0 0 0-4.48 0L8.7 25.14c-2.76 1.56-4.48 4.57-4.48 7.65v34.42c0 3.08 1.72 6.09 4.48 7.65l36.82 18.85a5 5 0 0 0 4.48 0l36.82-18.85c2.76-1.56 4.48-4.57 4.48-7.65V32.79c0-3.08-1.72-6.09-4.48-7.65z"/>
  <path fill="#fff" d="M63.5 52.8c-1.12.66-2.06.23-2.06-.99V39.56c0-1.22.94-2.64 2.06-3.3l9.55-5.5c1.12-.66 2.06-.23 2.06.99v12.25c0 1.22-.94 2.64-2.06 3.3z"/>
  <path fill="#fff" d="M38.5 72.2c-1.12.66-2.06.23-2.06-.99V58.96c0-1.22.94-2.64 2.06-3.3l11.37-6.6c1.12-.66 2.06-.23 2.06.99v12.25c0 1.22-.94 2.64-2.06 3.3z"/>
  <path fill="#fff" d="M50 34.15c-1.12.66-2.06.23-2.06-.99V20.91c0-1.22.94-2.64 2.06-3.3l11.37-6.6c1.12-.66 2.06-.23 2.06.99v12.25c0 1.22-.94 2.64-2.06 3.3z"/>
  <path fill="#fff" d="M38.5 29.8c-1.12.66-2.06.23-2.06-.99V16.56c0-1.22.94-2.64 2.06-3.3l11.37-6.6c1.12-.66 2.06-.23 2.06.99v12.25c0 1.22-.94 2.64-2.06 3.3z"/>
</svg>
